<?xml version="1.0" encoding="UTF-8" standalone="no"?>
<!-- Created with Inkscape (http://www.inkscape.org/) -->

<svg
   xmlns:dc="http://purl.org/dc/elements/1.1/"
   xmlns:cc="http://creativecommons.org/ns#"
   xmlns:rdf="http://www.w3.org/1999/02/22-rdf-syntax-ns#"
   xmlns:svg="http://www.w3.org/2000/svg"
   xmlns="http://www.w3.org/2000/svg"
   xmlns:sodipodi="http://sodipodi.sourceforge.net/DTD/sodipodi-0.dtd"
   xmlns:inkscape="http://www.inkscape.org/namespaces/inkscape"
   width="60.959999mm"
   height="128.5mm"
   viewBox="0 0 60.96 128.5"
   version="1.1"
   id="svg8"
   inkscape:version="0.92.3 (2405546, 2018-03-11)"
   sodipodi:docname="Bloodmoon.svg">
  <defs
     id="defs2" />
  <sodipodi:namedview
     id="base"
     pagecolor="#ffffff"
     bordercolor="#666666"
     borderopacity="1.0"
     inkscape:pageopacity="0.0"
     inkscape:pageshadow="2"
     inkscape:zoom="1.4"
     inkscape:cx="41.848933"
     inkscape:cy="260.0901"
     inkscape:document-units="mm"
     inkscape:current-layer="layer2"
     showgrid="false"
     inkscape:measure-start="0,0"
     inkscape:measure-end="0,0"
     inkscape:window-width="983"
     inkscape:window-height="1009"
     inkscape:window-x="75"
     inkscape:window-y="28"
     inkscape:window-maximized="0" />
  <metadata
     id="metadata5">
    <rdf:RDF>
      <cc:Work
         rdf:about="">
        <dc:format>image/svg+xml</dc:format>
        <dc:type
           rdf:resource="http://purl.org/dc/dcmitype/StillImage" />
        <dc:title></dc:title>
      </cc:Work>
    </rdf:RDF>
  </metadata>
  <g
     inkscape:label="Layer 1"
     inkscape:groupmode="layer"
     id="layer1"
     transform="translate(0,-168.5)"
     style="display:inline">
    <path
       style="fill:#00344f;fill-opacity:1;stroke-width:0.26726952"
       d="M -0.62284821,232.74403 V 167.66391 H 30.24678 61.11641 v 65.08012 65.08013 H 30.24678 -0.62284821 Z"
       id="path3725"
       inkscape:connector-curvature="0" />
    <circle
       style="fill:#d7eef4;fill-opacity:1;stroke-width:0.26458332"
       id="path3727"
       cx="30.781321"
       cy="199.04572"
       r="23.118814" />
    <path
       style="fill:#93a7ac;fill-opacity:0.46231157;stroke:#000000;stroke-width:0;stroke-linecap:butt;stroke-linejoin:miter;stroke-miterlimit:4;stroke-dasharray:none;stroke-opacity:1"
       d="m 35.290549,221.70729 c 14.892594,-12.55906 17.777885,-37.49177 -11.845059,-44.62863 8.158717,-2.63312 18.335126,-0.77137 24.830067,6.79951 3.112161,3.27791 9.837634,14.82912 1.971115,27.72921 -3.860152,5.75287 -10.095013,9.3245 -14.956123,10.09991 z"
       id="path3729"
       inkscape:connector-curvature="0"
       sodipodi:nodetypes="ccccc" />
    <circle
       style="fill:#93a7ac;fill-opacity:0.46231157;stroke-width:0;stroke-miterlimit:4;stroke-dasharray:none"
       id="path4536"
       cx="35.867783"
       cy="184.46986"
       r="1.3229166" />
    <circle
       style="fill:#93a7ac;fill-opacity:0.46231157;stroke-width:0;stroke-miterlimit:4;stroke-dasharray:none"
       id="path4538"
       cx="39.887135"
       cy="197.52266"
       r="3.6852679" />
    <circle
       style="fill:#93a7ac;fill-opacity:0.46231157;stroke-width:0;stroke-miterlimit:4;stroke-dasharray:none"
       id="path4540"
       cx="17.464371"
       cy="188.73323"
       r="4.0632439" />
    <circle
       style="fill:#93a7ac;fill-opacity:0.46231157;stroke-width:0;stroke-miterlimit:4;stroke-dasharray:none"
       id="path4542"
       cx="32.376251"
       cy="211.91344"
       r="5.4806542" />
    <circle
       style="fill:#93a7ac;fill-opacity:0.46231157;stroke-width:0;stroke-miterlimit:4;stroke-dasharray:none"
       id="path4544"
       cx="18.898809"
       cy="209.4985"
       r="0.75595242" />
    <circle
       style="fill:#93a7ac;fill-opacity:0.46231157;stroke-width:0;stroke-miterlimit:4;stroke-dasharray:none"
       id="path4546"
       cx="30.648018"
       cy="191.73756"
       r="1.1453925" />
    <circle
       style="fill:#93a7ac;fill-opacity:0.46231157;stroke-width:0;stroke-miterlimit:4;stroke-dasharray:none"
       id="path4548"
       cx="41.025871"
       cy="206.66289"
       r="1.3363476" />
    <circle
       style="fill:#93a7ac;fill-opacity:0.46231157;stroke-width:0;stroke-miterlimit:4;stroke-dasharray:none"
       id="path4552"
       cx="19.911579"
       cy="198.11028"
       r="1.9377041" />
    <circle
       style="fill:#93a7ac;fill-opacity:0.46231157;stroke-width:0;stroke-miterlimit:4;stroke-dasharray:none"
       id="path4554"
       cx="27.428535"
       cy="184.84702"
       r="0.30067819" />
    <flowRoot
       xml:space="preserve"
       id="flowRoot4597"
       style="font-style:normal;font-weight:normal;font-size:40px;line-height:1.25;font-family:sans-serif;letter-spacing:0px;word-spacing:0px;fill:#000000;fill-opacity:1;stroke:none"
       transform="matrix(0.26458333,0,0,0.26458333,0,168.5)"><flowRegion
         id="flowRegion4599"><rect
           id="rect4601"
           width="221.8998"
           height="55.479176"
           x="11.111678"
           y="433.14136" /></flowRegion><flowPara
         id="flowPara4603"></flowPara></flowRoot>    <flowRoot
       xml:space="preserve"
       id="flowRoot4605"
       style="font-style:normal;font-weight:normal;font-size:40px;line-height:1.25;font-family:sans-serif;letter-spacing:0px;word-spacing:0px;fill:#000000;fill-opacity:1;stroke:none"
       transform="matrix(0.26458333,0,0,0.26458333,0,168.5)"><flowRegion
         id="flowRegion4607"><rect
           id="rect4609"
           width="232.66885"
           height="41.33704"
           x="-0.33376601"
           y="447.28348" /></flowRegion><flowPara
         id="flowPara4611">Moon</flowPara></flowRoot>    <g
       aria-label="Bloodmoon"
       style="font-style:normal;font-weight:normal;font-size:6.18783951px;line-height:1.25;font-family:sans-serif;letter-spacing:0px;word-spacing:0px;fill:#d7eef4;fill-opacity:1;stroke:none;stroke-width:0.15469599"
       id="text4615">
      <path
         d="m 13.938743,289.7363 v 1.65271 h 0.978935 q 0.492489,0 0.728159,-0.20243 0.238691,-0.20546 0.238691,-0.62543 0,-0.423 -0.238691,-0.62241 -0.23567,-0.20244 -0.728159,-0.20244 z m 0,-1.85514 v 1.35963 h 0.9034 q 0.447168,0 0.664709,-0.16618 0.220563,-0.1692 0.220563,-0.51364 0,-0.34141 -0.220563,-0.51061 -0.217541,-0.1692 -0.664709,-0.1692 z m -0.610324,-0.50156 h 1.559045 q 0.697945,0 1.075621,0.29006 0.377675,0.29005 0.377675,0.82484 0,0.41394 -0.19337,0.65867 -0.19337,0.24473 -0.568024,0.30516 0.45019,0.0967 0.697945,0.40487 0.250777,0.30516 0.250777,0.76442 0,0.60428 -0.410912,0.93361 -0.410911,0.32933 -1.169284,0.32933 h -1.619473 z"
         style="fill:#d7eef4;fill-opacity:1;stroke-width:0.15469599"
         id="path4617"
         inkscape:connector-curvature="0" />
      <path
         d="m 17.546301,287.18926 h 0.555939 v 4.7013 h -0.555939 z"
         style="fill:#d7eef4;fill-opacity:1;stroke-width:0.15469599"
         id="path4619"
         inkscape:connector-curvature="0" />
      <path
         d="m 20.57375,288.89635 q -0.447168,0 -0.707009,0.35048 -0.25984,0.34747 -0.25984,0.95477 0,0.6073 0.256819,0.95778 0.259841,0.34747 0.71003,0.34747 0.444147,0 0.703988,-0.35049 0.259841,-0.35048 0.259841,-0.95476 0,-0.60126 -0.259841,-0.95174 -0.259841,-0.35351 -0.703988,-0.35351 z m 0,-0.47134 q 0.725138,0 1.139071,0.47134 0.413932,0.47134 0.413932,1.30525 0,0.83088 -0.413932,1.30525 -0.413933,0.47133 -1.139071,0.47133 -0.728158,0 -1.142091,-0.47133 -0.410911,-0.47437 -0.410911,-1.30525 0,-0.83391 0.410911,-1.30525 0.413933,-0.47134 1.142091,-0.47134 z"
         style="fill:#d7eef4;fill-opacity:1;stroke-width:0.15469599"
         id="path4621"
         inkscape:connector-curvature="0" />
      <path
         d="m 24.35655,288.89635 q -0.447168,0 -0.707009,0.35048 -0.259841,0.34747 -0.259841,0.95477 0,0.6073 0.25682,0.95778 0.259841,0.34747 0.71003,0.34747 0.444147,0 0.703988,-0.35049 0.259841,-0.35048 0.259841,-0.95476 0,-0.60126 -0.259841,-0.95174 -0.259841,-0.35351 -0.703988,-0.35351 z m 0,-0.47134 q 0.725138,0 1.13907,0.47134 0.413933,0.47134 0.413933,1.30525 0,0.83088 -0.413933,1.30525 -0.413932,0.47133 -1.13907,0.47133 -0.728159,0 -1.142091,-0.47133 -0.410911,-0.47437 -0.410911,-1.30525 0,-0.83391 0.410911,-1.30525 0.413932,-0.47134 1.142091,-0.47134 z"
         style="fill:#d7eef4;fill-opacity:1;stroke-width:0.15469599"
         id="path4623"
         inkscape:connector-curvature="0" />
      <path
         d="m 29.054837,289.02023 v -1.83097 h 0.555939 v 4.7013 h -0.555939 v -0.50759 q -0.175242,0.30214 -0.444147,0.45019 -0.265884,0.14502 -0.640538,0.14502 -0.613345,0 -1.000085,-0.48946 -0.383719,-0.48947 -0.383719,-1.28712 0,-0.79765 0.383719,-1.28712 0.38674,-0.48947 1.000085,-0.48947 0.374654,0 0.640538,0.14805 0.268905,0.14503 0.444147,0.44717 z m -1.894422,1.18137 q 0,0.61334 0.250777,0.96383 0.253798,0.34746 0.694923,0.34746 0.441126,0 0.694924,-0.34746 0.253798,-0.35049 0.253798,-0.96383 0,-0.61335 -0.253798,-0.96081 -0.253798,-0.35048 -0.694924,-0.35048 -0.441125,0 -0.694923,0.35048 -0.250777,0.34746 -0.250777,0.96081 z"
         style="fill:#d7eef4;fill-opacity:1;stroke-width:0.15469599"
         id="path4625"
         inkscape:connector-curvature="0" />
      <path
         d="m 33.390555,289.15619 q 0.208477,-0.37465 0.498532,-0.55292 0.290055,-0.17826 0.682837,-0.17826 0.528746,0 0.81578,0.37163 0.287033,0.36862 0.287033,1.05145 v 2.04247 h -0.55896 v -2.02434 q 0,-0.48644 -0.17222,-0.72211 -0.17222,-0.23567 -0.525724,-0.23567 -0.432061,0 -0.682838,0.28703 -0.250777,0.28703 -0.250777,0.78254 v 1.91255 h -0.55896 v -2.02434 q 0,-0.48947 -0.17222,-0.72211 -0.17222,-0.23567 -0.531768,-0.23567 -0.426018,0 -0.676795,0.29005 -0.250776,0.28703 -0.250776,0.77952 v 1.91255 h -0.55896 v -3.38397 h 0.55896 v 0.52572 q 0.190348,-0.3112 0.456232,-0.45925 0.265884,-0.14805 0.631474,-0.14805 0.368611,0 0.625431,0.18733 0.259841,0.18733 0.383719,0.54385 z"
         style="fill:#d7eef4;fill-opacity:1;stroke-width:0.15469599"
         id="path4627"
         inkscape:connector-curvature="0" />
      <path
         d="m 38.097906,288.89635 q -0.447168,0 -0.707009,0.35048 -0.259841,0.34747 -0.259841,0.95477 0,0.6073 0.25682,0.95778 0.259841,0.34747 0.71003,0.34747 0.444147,0 0.703988,-0.35049 0.259841,-0.35048 0.259841,-0.95476 0,-0.60126 -0.259841,-0.95174 -0.259841,-0.35351 -0.703988,-0.35351 z m 0,-0.47134 q 0.725138,0 1.13907,0.47134 0.413933,0.47134 0.413933,1.30525 0,0.83088 -0.413933,1.30525 -0.413932,0.47133 -1.13907,0.47133 -0.728159,0 -1.142091,-0.47133 -0.410912,-0.47437 -0.410912,-1.30525 0,-0.83391 0.410912,-1.30525 0.413932,-0.47134 1.142091,-0.47134 z"
         style="fill:#d7eef4;fill-opacity:1;stroke-width:0.15469599"
         id="path4629"
         inkscape:connector-curvature="0" />
      <path
         d="m 41.880705,288.89635 q -0.447168,0 -0.707009,0.35048 -0.259841,0.34747 -0.259841,0.95477 0,0.6073 0.256819,0.95778 0.259841,0.34747 0.710031,0.34747 0.444147,0 0.703987,-0.35049 0.259841,-0.35048 0.259841,-0.95476 0,-0.60126 -0.259841,-0.95174 -0.25984,-0.35351 -0.703987,-0.35351 z m 0,-0.47134 q 0.725137,0 1.13907,0.47134 0.413933,0.47134 0.413933,1.30525 0,0.83088 -0.413933,1.30525 -0.413933,0.47133 -1.13907,0.47133 -0.728159,0 -1.142092,-0.47133 -0.410911,-0.47437 -0.410911,-1.30525 0,-0.83391 0.410911,-1.30525 0.413933,-0.47134 1.142092,-0.47134 z"
         style="fill:#d7eef4;fill-opacity:1;stroke-width:0.15469599"
         id="path4631"
         inkscape:connector-curvature="0" />
      <path
         d="m 47.165144,289.84809 v 2.04247 h -0.555938 v -2.02434 q 0,-0.4804 -0.187328,-0.71909 -0.187327,-0.23869 -0.561981,-0.23869 -0.45019,0 -0.71003,0.28703 -0.259841,0.28703 -0.259841,0.78254 v 1.91255 h -0.558961 v -3.38397 h 0.558961 v 0.52572 q 0.199412,-0.30516 0.468318,-0.45623 0.271926,-0.15107 0.625431,-0.15107 0.583131,0 0.88225,0.36257 0.299119,0.35955 0.299119,1.06051 z"
         style="fill:#d7eef4;fill-opacity:1;stroke-width:0.15469599"
         id="path4633"
         inkscape:connector-curvature="0" />
    </g>
    <rect
       style="fill:#d7eef4;fill-opacity:1;stroke-width:0;stroke-miterlimit:4;stroke-dasharray:none"
       id="rect4636"
       width="62.610943"
       height="0.31059486"
       x="-0.62284821"
       y="232.43344" />
    <g
       aria-label="Colour"
       style="font-style:normal;font-weight:normal;font-size:5.25966358px;line-height:1.25;font-family:sans-serif;letter-spacing:0px;word-spacing:0px;fill:#d7eef4;fill-opacity:1;stroke:none;stroke-width:0.13149159"
       id="text4659">
      <path
         d="m 24.952446,240.16159 v 0.54702 q -0.261956,-0.24397 -0.559866,-0.36468 -0.295343,-0.1207 -0.629208,-0.1207 -0.657458,0 -1.006733,0.4032 -0.349274,0.40064 -0.349274,1.16083 0,0.75761 0.349274,1.16082 0.349275,0.40064 1.006733,0.40064 0.333865,0 0.629208,-0.12071 0.29791,-0.1207 0.559866,-0.36468 v 0.54189 q -0.272229,0.18491 -0.577844,0.27736 -0.303047,0.0925 -0.642049,0.0925 -0.870618,0 -1.371416,-0.53162 -0.500798,-0.53418 -0.500798,-1.45616 0,-0.92455 0.500798,-1.45617 0.500798,-0.53419 1.371416,-0.53419 0.344139,0 0.647186,0.0925 0.305615,0.0899 0.572707,0.27223 z"
         style="fill:#d7eef4;fill-opacity:1;stroke-width:0.13149159"
         id="path4700"
         inkscape:connector-curvature="0" />
      <path
         d="m 26.852911,241.15548 q -0.380093,0 -0.600958,0.29791 -0.220865,0.29534 -0.220865,0.81155 0,0.51621 0.218297,0.81412 0.220864,0.29534 0.603526,0.29534 0.377524,0 0.598389,-0.29791 0.220865,-0.29791 0.220865,-0.81155 0,-0.51107 -0.220865,-0.80898 -0.220865,-0.30048 -0.598389,-0.30048 z m 0,-0.40064 q 0.616366,0 0.968209,0.40064 0.351843,0.40064 0.351843,1.10946 0,0.70625 -0.351843,1.10946 -0.351843,0.40064 -0.968209,0.40064 -0.618936,0 -0.970778,-0.40064 -0.349275,-0.40321 -0.349275,-1.10946 0,-0.70882 0.349275,-1.10946 0.351842,-0.40064 0.970778,-0.40064 z"
         style="fill:#d7eef4;fill-opacity:1;stroke-width:0.13149159"
         id="path4702"
         inkscape:connector-curvature="0" />
      <path
         d="m 28.953694,239.70445 h 0.472548 v 3.99611 h -0.472548 z"
         style="fill:#d7eef4;fill-opacity:1;stroke-width:0.13149159"
         id="path4704"
         inkscape:connector-curvature="0" />
      <path
         d="m 31.527025,241.15548 q -0.380092,0 -0.600957,0.29791 -0.220865,0.29534 -0.220865,0.81155 0,0.51621 0.218297,0.81412 0.220864,0.29534 0.603525,0.29534 0.377525,0 0.59839,-0.29791 0.220865,-0.29791 0.220865,-0.81155 0,-0.51107 -0.220865,-0.80898 -0.220865,-0.30048 -0.59839,-0.30048 z m 0,-0.40064 q 0.616367,0 0.96821,0.40064 0.351843,0.40064 0.351843,1.10946 0,0.70625 -0.351843,1.10946 -0.351843,0.40064 -0.96821,0.40064 -0.618935,0 -0.970777,-0.40064 -0.349275,-0.40321 -0.349275,-1.10946 0,-0.70882 0.349275,-1.10946 0.351842,-0.40064 0.970777,-0.40064 z"
         style="fill:#d7eef4;fill-opacity:1;stroke-width:0.13149159"
         id="path4706"
         inkscape:connector-curvature="0" />
      <path
         d="m 33.579014,242.56542 v -1.74124 h 0.472548 v 1.72326 q 0,0.40834 0.159228,0.6138 0.159228,0.20289 0.477684,0.20289 0.382661,0 0.603526,-0.24398 0.223433,-0.24398 0.223433,-0.66516 v -1.63081 h 0.472548 v 2.87638 h -0.472548 v -0.44173 q -0.172069,0.26196 -0.400639,0.39037 -0.226001,0.12584 -0.52648,0.12584 -0.495661,0 -0.752481,-0.30818 -0.256819,-0.30819 -0.256819,-0.90144 z m 1.189074,-1.81058 z"
         style="fill:#d7eef4;fill-opacity:1;stroke-width:0.13149159"
         id="path4708"
         inkscape:connector-curvature="0" />
      <path
         d="m 38.633222,241.26591 q -0.07961,-0.0462 -0.174638,-0.0668 -0.09246,-0.0231 -0.205455,-0.0231 -0.400639,0 -0.616367,0.26195 -0.21316,0.25939 -0.21316,0.74735 v 1.51523 h -0.475116 v -2.87638 h 0.475116 v 0.44687 q 0.148955,-0.26196 0.387797,-0.3878 0.238842,-0.12841 0.580412,-0.12841 0.0488,0 0.107864,0.008 0.05907,0.005 0.130978,0.018 z"
         style="fill:#d7eef4;fill-opacity:1;stroke-width:0.13149159"
         id="path4710"
         inkscape:connector-curvature="0" />
    </g>
    <rect
       style="fill:none;fill-opacity:1;stroke:#d7eef4;stroke-width:0.5;stroke-miterlimit:4;stroke-dasharray:1.00000003, 1.00000003;stroke-dashoffset:0;stroke-opacity:1"
       id="rect4661"
       width="27.214285"
       height="17.386906"
       x="16.639639"
       y="246.35118"
       rx="3" />
  </g>
  <g
     inkscape:groupmode="layer"
     id="layer2"
     inkscape:label="components"
     style="display:none">
    <circle
       style="fill:#ff0000;fill-opacity:1;stroke:none;stroke-width:0.21507941;stroke-miterlimit:4;stroke-dasharray:0.43015881, 0.43015881;stroke-dashoffset:0;stroke-opacity:1"
       id="path4664"
       cx="30.1436"
       cy="86.544632"
       r="6.3409991"
       inkscape:label="colorKnob" />
    <circle
       style="fill:#00ff00;fill-opacity:1;stroke:none;stroke-width:0.21507941;stroke-miterlimit:4;stroke-dasharray:0.43015881, 0.43015881;stroke-dashoffset:0;stroke-opacity:1"
       id="path4664-6"
       cx="8.5044641"
       cy="108.18378"
       r="6.3409991"
       inkscape:label="signalIn" />
    <circle
       style="fill:#0000ff;fill-opacity:1;stroke:none;stroke-width:0.21507941;stroke-miterlimit:4;stroke-dasharray:0.43015881, 0.43015881;stroke-dashoffset:0;stroke-opacity:1"
       id="path4664-6-2"
       cx="51.782738"
       cy="108.18378"
       r="6.3409991"
       inkscape:label="signalOut" />
    <circle
       style="display:inline;fill:#ff00ff;fill-opacity:1;stroke-width:0;stroke-miterlimit:4;stroke-dasharray:none"
       id="path4556"
       cy="54.858875"
       cx="5.6034417"
       r="1.4699824"
       inkscape:label="star4" />
    <circle
       style="display:inline;fill:#ff00ff;fill-opacity:1;stroke-width:0;stroke-miterlimit:4;stroke-dasharray:none"
       id="path4556-3"
       cy="46.97443"
       cx="53.177418"
       r="1.4699824"
       inkscape:label="star5" />
    <circle
       style="display:inline;fill:#ff00ff;fill-opacity:1;stroke-width:0;stroke-miterlimit:4;stroke-dasharray:none"
       id="path4556-6"
       cy="10.091235"
       cx="56.384655"
       r="1.4699824"
       inkscape:label="star3" />
    <circle
       style="display:inline;fill:#ff00ff;fill-opacity:1;stroke-width:0;stroke-miterlimit:4;stroke-dasharray:none"
       id="path4556-7"
       cy="7.9530816"
       cx="44.357529"
       r="1.4699824"
       inkscape:label="star2" />
    <circle
       style="display:inline;fill:#ff00ff;fill-opacity:1;stroke-width:0;stroke-miterlimit:4;stroke-dasharray:none"
       id="path4556-5"
       cy="6.3494592"
       cx="10.147024"
       r="1.4699824"
       inkscape:label="star1" />
  </g>
</svg>
